{"title":"Gone 2012 RC 720P BRRip READNFO x264-HOPE.[PublicHD]","uid":7164609,"size":1897863349,"categoryP":"video","categoryS":"hd___movies","magnet":"?xt=urn:btih:885bcb3357b442d1e3ca1dbcdc6bb035f5fd0fe1&amp;dn=Gone+2012+RC+720P+BRRip+READNFO+x264-HOPE.%5BPublicHD%5D&amp;tr=udp%3A%2F%2Ftracker.openbittorrent.com%3A80&amp;tr=udp%3A%2F%2Fopen.demonii.com%3A1337&amp;tr=udp%3A%2F%2Ftracker.coppersurfer.tk%3A6969&amp;tr=udp%3A%2F%2Fexodus.desync.com%3A6969","seeders":1,"leechers":0,"uploader":"WORD7BBC","files":-1,"time":1333730662,"description":"Gone 2012 RC 720P BRRip READNFO x264-HOPE.[PublicHD]\n &lt;a href=&quot;\nhttp://www.imdb.com/title/tt1838544/&quot; rel=&quot;nofollow&quot; target=&quot;_NEW&quot;&gt;\nhttp://www.imdb.com/title/tt1838544/&lt;/a&gt;\n\nINFO &lt;&gt; INFO &lt;&gt; INFO &lt;&gt; INFO\n\n\nInformation\n\n Format : Matroska\n Format version : Version 2\n File size : 1.75 GiB\n Duration : 1h 34mn\n Overall bit rate : 2 641 Kbps\n Encoded date : UTC 2012-04-06 12:04:40\n Writing application : mkvmerge v5.4.0 ('Piper' built on Mar 10 2012 13:34:39\n Writing library : libebml v1.2.3 + libmatroska v1.3.0\n IMDB: http://www.imdb.com/title/tt1838544/\n\nVideo Information\n ID : 1\n Format : AVC\n Format/Info : Advanced Video Codec\n Format profile : &lt;a class=&quot;__cf_email__&quot; href=&quot;/cdn-cgi/l/email-protection&quot; data-cfemail=&quot;1a52737d725a562e3428&quot;&gt;[email&amp;#160;protected]&lt;/a&gt;&lt;script cf-hash='f9e31' type=&quot;text/javascript&quot;&gt;\n/* &lt;![CDATA[ */!function(){try{var t=&quot;currentScript&quot;in document?document.currentScript:function(){for(var t=document.getElementsByTagName(&quot;script&quot;),e=t.length;e--;)if(t[e].getAttribute(&quot;cf-hash&quot;))return t[e]}();if(t&amp;&amp;t.previousSibling){var e,r,n,i,c=t.previousSibling,a=c.getAttribute(&quot;data-cfemail&quot;);if(a){for(e=&quot;&quot;,r=parseInt(a.substr(0,2),16),n=2;a.length-n;n+=2)i=parseInt(a.substr(n,2),16)^r,e+=String.fromCharCode(i);e=document.createTextNode(e),c.parentNode.replaceChild(e,c)}}}catch(u){}}();/* ]]&gt; */&lt;/script&gt;\n Format settings, CABAC : Yes\n Format settings, ReFrames : 4 frames\n Codec ID : V_MPEG4/ISO/AVC\n Duration : 1h 34mn\n Bit rate : 2 512 Kbps\n Width : 1 280 pixels\n Height : 536 pixels\n Display aspect ratio : 2.40:1\n Frame rate : 24.000 fps\n Color space : YUV\n Chroma subsampling : 4:2:0\n Bit depth : 8 bits\n Scan type : Progressive\n Bits/(Pixel*Frame) : 0.153\n Stream size : 1.63 GiB (93%)\n Writing library : x264 core 122 r2184 5c85e0a\n\nAudio Information\n ID : 2\n Format : MPEG Audio\n Format version : Version 1\n Format profile : Layer 3\n Mode : Joint stereo\n Codec ID : A_MPEG/L3\n Codec ID/Hint : MP3\n Duration : 1h 34mn\n Bit rate mode : Constant\n Bit rate : 128 Kbps\n Channel(s) : 2 channels\n Sampling rate : 44.1 KHz\n Compression mode : Lossy\n Stream size : 86.7 MiB (5%)\n\n &lt;a href=&quot;\nhttp://www.imagezon3.com/images/vTHLP.jpg&quot; rel=&quot;nofollow&quot; target=&quot;_NEW&quot;&gt;\nhttp://www.imagezon3.com/images/vTHLP.jpg&lt;/a&gt; &lt;a href=&quot;\nhttp://www.imagezon3.com/images/ezX2U.jpg&quot; rel=&quot;nofollow&quot; target=&quot;_NEW&quot;&gt;\nhttp://www.imagezon3.com/images/ezX2U.jpg&lt;/a&gt; &lt;a href=&quot;\nhttp://www.imagezon3.com/images/dCGvW.jpg&quot; rel=&quot;nofollow&quot; target=&quot;_NEW&quot;&gt;\nhttp://www.imagezon3.com/images/dCGvW.jpg&lt;/a&gt; &lt;a href=&quot;\nhttp://image.bayimg.com/canpeaadn.jpg&quot; rel=&quot;nofollow&quot; target=&quot;_NEW&quot;&gt;\nhttp://image.bayimg.com/canpeaadn.jpg&lt;/a&gt;","torrent":{"xt":"urn:btih:885bcb3357b442d1e3ca1dbcdc6bb035f5fd0fe1","amp;dn":"Gone+2012+RC+720P+BRRip+READNFO+x264-HOPE.%5BPublicHD%5D","amp;tr":["udp%3A%2F%2Ftracker.openbittorrent.com%3A80","udp%3A%2F%2Fopen.demonii.com%3A1337","udp%3A%2F%2Ftracker.coppersurfer.tk%3A6969","udp%3A%2F%2Fexodus.desync.com%3A6969"],"infoHash":"885bcb3357b442d1e3ca1dbcdc6bb035f5fd0fe1","infoHashBuffer":{"type":"Buffer","data":[136,91,203,51,87,180,66,209,227,202,29,188,220,107,176,53,245,253,15,225]},"announce":[],"urlList":[]}}